<mxfile host="Electron" modified="2024-03-28T14:34:00.818Z" agent="Mozilla/5.0 (X11; Linux x86_64) AppleWebKit/537.36 (KHTML, like Gecko) draw.io/24.1.0 Chrome/120.0.6099.109 Electron/28.1.0 Safari/537.36" etag="AIcXQ615ZzIlit52WN2S" version="24.1.0" type="device">
  <diagram name="Page-1" id="-cMVqA2Gkwa5aGeDibPs">
    <mxGraphModel dx="1775" dy="1134" grid="1" gridSize="10" guides="1" tooltips="1" connect="1" arrows="1" fold="1" page="0" pageScale="1" pageWidth="413" pageHeight="291" math="1" shadow="0">
      <root>
        <mxCell id="0" />
        <mxCell id="1" parent="0" />
        <mxCell id="GCO7xrDp6TmdYOZJOnFd-1" value="&lt;font style=&quot;font-size: 7px;&quot;&gt;$$PmRefPu$$&lt;/font&gt;" style="triangle;whiteSpace=wrap;html=1;align=left;" parent="1" vertex="1">
          <mxGeometry x="-120" y="80" width="60" height="80" as="geometry" />
        </mxCell>
        <mxCell id="GCO7xrDp6TmdYOZJOnFd-144" style="edgeStyle=orthogonalEdgeStyle;rounded=0;orthogonalLoop=1;jettySize=auto;html=1;entryX=0;entryY=0.25;entryDx=0;entryDy=0;" parent="1" source="GCO7xrDp6TmdYOZJOnFd-2" target="GCO7xrDp6TmdYOZJOnFd-4" edge="1">
          <mxGeometry relative="1" as="geometry">
            <Array as="points">
              <mxPoint x="-40" y="240" />
              <mxPoint x="-40" y="300" />
            </Array>
          </mxGeometry>
        </mxCell>
        <mxCell id="GCO7xrDp6TmdYOZJOnFd-2" value="&lt;font style=&quot;font-size: 7px;&quot;&gt;$$omegaPu$$&lt;/font&gt;" style="triangle;whiteSpace=wrap;html=1;align=left;" parent="1" vertex="1">
          <mxGeometry x="-120" y="200" width="60" height="80" as="geometry" />
        </mxCell>
        <mxCell id="GCO7xrDp6TmdYOZJOnFd-3" value="&lt;font style=&quot;font-size: 7px;&quot;&gt;$$omegaRefPu$$&lt;/font&gt;" style="triangle;whiteSpace=wrap;html=1;align=left;" parent="1" vertex="1">
          <mxGeometry x="-120" y="360" width="60" height="80" as="geometry" />
        </mxCell>
        <mxCell id="GCO7xrDp6TmdYOZJOnFd-4" value="&lt;table&gt;&lt;tbody&gt;&lt;tr&gt;&lt;td&gt;$$1$$&lt;/td&gt;&lt;/tr&gt;&lt;tr&gt;&lt;td&gt;$$-1$$&lt;/td&gt;&lt;/tr&gt;&lt;/tbody&gt;&lt;/table&gt;" style="whiteSpace=wrap;html=1;aspect=fixed;" parent="1" vertex="1">
          <mxGeometry y="280" width="80" height="80" as="geometry" />
        </mxCell>
        <mxCell id="GCO7xrDp6TmdYOZJOnFd-127" style="edgeStyle=orthogonalEdgeStyle;rounded=0;orthogonalLoop=1;jettySize=auto;html=1;exitX=0.5;exitY=1;exitDx=0;exitDy=0;" parent="1" source="GCO7xrDp6TmdYOZJOnFd-99" edge="1">
          <mxGeometry relative="1" as="geometry">
            <mxPoint x="480.20000000000005" y="110.20000000000005" as="targetPoint" />
          </mxGeometry>
        </mxCell>
        <mxCell id="2lbM-o8FKyXfnE-6kNYV-6" value="" style="edgeStyle=orthogonalEdgeStyle;rounded=0;orthogonalLoop=1;jettySize=auto;html=1;" parent="1" source="GCO7xrDp6TmdYOZJOnFd-99" target="GCO7xrDp6TmdYOZJOnFd-119" edge="1">
          <mxGeometry relative="1" as="geometry" />
        </mxCell>
        <mxCell id="GCO7xrDp6TmdYOZJOnFd-99" value="$$\frac{1}{1+t1*s}$$" style="rounded=0;whiteSpace=wrap;html=1;" parent="1" vertex="1">
          <mxGeometry x="440" y="40" width="80" height="80" as="geometry" />
        </mxCell>
        <mxCell id="GCO7xrDp6TmdYOZJOnFd-110" value="" style="endArrow=none;html=1;exitX=0.5;exitY=0;exitDx=0;exitDy=0;" parent="1" source="GCO7xrDp6TmdYOZJOnFd-99" edge="1">
          <mxGeometry width="50" height="50" relative="1" as="geometry">
            <mxPoint x="480" y="50" as="sourcePoint" />
            <mxPoint x="500" y="30" as="targetPoint" />
          </mxGeometry>
        </mxCell>
        <mxCell id="GCO7xrDp6TmdYOZJOnFd-111" value="" style="endArrow=none;html=1;" parent="1" edge="1">
          <mxGeometry width="50" height="50" relative="1" as="geometry">
            <mxPoint x="500" y="30" as="sourcePoint" />
            <mxPoint x="520" y="30" as="targetPoint" />
          </mxGeometry>
        </mxCell>
        <mxCell id="GCO7xrDp6TmdYOZJOnFd-112" value="&lt;font style=&quot;font-size: 12px;&quot;&gt;$$VMax$$&lt;/font&gt;" style="text;html=1;strokeColor=none;fillColor=none;align=center;verticalAlign=middle;whiteSpace=wrap;rounded=0;fontSize=15;" parent="1" vertex="1">
          <mxGeometry x="484" width="60" height="30" as="geometry" />
        </mxCell>
        <mxCell id="GCO7xrDp6TmdYOZJOnFd-113" value="" style="endArrow=none;html=1;" parent="1" edge="1">
          <mxGeometry width="50" height="50" relative="1" as="geometry">
            <mxPoint x="441" y="130" as="sourcePoint" />
            <mxPoint x="421" y="130" as="targetPoint" />
          </mxGeometry>
        </mxCell>
        <mxCell id="GCO7xrDp6TmdYOZJOnFd-114" value="&lt;font style=&quot;font-size: 12px;&quot;&gt;$$VMin$$&lt;/font&gt;" style="text;html=1;strokeColor=none;fillColor=none;align=center;verticalAlign=middle;whiteSpace=wrap;rounded=0;fontSize=15;" parent="1" vertex="1">
          <mxGeometry x="400" y="126" width="60" height="30" as="geometry" />
        </mxCell>
        <mxCell id="GCO7xrDp6TmdYOZJOnFd-115" value="" style="endArrow=none;html=1;exitX=0.5;exitY=0;exitDx=0;exitDy=0;entryX=0.25;entryY=1;entryDx=0;entryDy=0;" parent="1" target="GCO7xrDp6TmdYOZJOnFd-99" edge="1">
          <mxGeometry width="50" height="50" relative="1" as="geometry">
            <mxPoint x="441" y="130" as="sourcePoint" />
            <mxPoint x="461" y="110" as="targetPoint" />
          </mxGeometry>
        </mxCell>
        <mxCell id="GCO7xrDp6TmdYOZJOnFd-119" value="$$\frac{1}{1+t2*s}$$" style="whiteSpace=wrap;html=1;aspect=fixed;" parent="1" vertex="1">
          <mxGeometry x="560" y="40" width="80" height="80" as="geometry" />
        </mxCell>
        <mxCell id="GCO7xrDp6TmdYOZJOnFd-120" value="&lt;table style=&quot;&quot;&gt;&lt;tbody&gt;&lt;tr&gt;&lt;td&gt;&lt;font style=&quot;font-size: 12px;&quot;&gt;$$1$$&lt;/font&gt;&lt;/td&gt;&lt;/tr&gt;&lt;tr&gt;&lt;td&gt;&lt;font style=&quot;font-size: 12px;&quot;&gt;$$-1/R$$&lt;/font&gt;&lt;/td&gt;&lt;/tr&gt;&lt;/tbody&gt;&lt;/table&gt;" style="whiteSpace=wrap;html=1;aspect=fixed;" parent="1" vertex="1">
          <mxGeometry x="160" y="120" width="80" height="80" as="geometry" />
        </mxCell>
        <mxCell id="GCO7xrDp6TmdYOZJOnFd-130" value="" style="endArrow=classic;html=1;rounded=0;entryX=-0.046;entryY=0.477;entryDx=0;entryDy=0;entryPerimeter=0;exitX=1;exitY=0.5;exitDx=0;exitDy=0;" parent="1" edge="1" source="GCO7xrDp6TmdYOZJOnFd-1">
          <mxGeometry width="50" height="50" relative="1" as="geometry">
            <mxPoint x="40" y="119" as="sourcePoint" />
            <mxPoint x="159.99999999999994" y="138.58000000000007" as="targetPoint" />
            <Array as="points">
              <mxPoint x="120" y="119" />
              <mxPoint x="120" y="139" />
            </Array>
          </mxGeometry>
        </mxCell>
        <mxCell id="GCO7xrDp6TmdYOZJOnFd-143" value="" style="endArrow=classic;html=1;rounded=0;entryX=0;entryY=0.75;entryDx=0;entryDy=0;exitX=1;exitY=0.5;exitDx=0;exitDy=0;" parent="1" source="GCO7xrDp6TmdYOZJOnFd-4" target="GCO7xrDp6TmdYOZJOnFd-120" edge="1">
          <mxGeometry width="50" height="50" relative="1" as="geometry">
            <mxPoint x="80" y="560" as="sourcePoint" />
            <mxPoint x="120" y="190" as="targetPoint" />
            <Array as="points">
              <mxPoint x="120" y="320" />
              <mxPoint x="120" y="180" />
            </Array>
          </mxGeometry>
        </mxCell>
        <mxCell id="GCO7xrDp6TmdYOZJOnFd-146" value="" style="endArrow=classic;html=1;rounded=0;entryX=0;entryY=0.75;entryDx=0;entryDy=0;" parent="1" target="GCO7xrDp6TmdYOZJOnFd-4" edge="1">
          <mxGeometry width="50" height="50" relative="1" as="geometry">
            <mxPoint x="-60" y="400" as="sourcePoint" />
            <mxPoint x="-40" y="340" as="targetPoint" />
            <Array as="points">
              <mxPoint x="-40" y="400" />
              <mxPoint x="-40" y="340" />
            </Array>
          </mxGeometry>
        </mxCell>
        <mxCell id="pcb0Rrb9AqgbB0oOaPCg-21" value="" style="endArrow=classic;html=1;rounded=0;entryX=0;entryY=0.5;entryDx=0;entryDy=0;" parent="1" target="2lbM-o8FKyXfnE-6kNYV-2" edge="1">
          <mxGeometry width="50" height="50" relative="1" as="geometry">
            <mxPoint x="120" y="320" as="sourcePoint" />
            <mxPoint x="560" y="401" as="targetPoint" />
            <Array as="points">
              <mxPoint x="160" y="320" />
            </Array>
          </mxGeometry>
        </mxCell>
        <mxCell id="pcb0Rrb9AqgbB0oOaPCg-23" value="&lt;font style=&quot;font-size: 10px;&quot;&gt;$$PmPu$$&lt;/font&gt;" style="triangle;whiteSpace=wrap;html=1;align=left;" parent="1" vertex="1">
          <mxGeometry x="840" y="200" width="60" height="80" as="geometry" />
        </mxCell>
        <mxCell id="2lbM-o8FKyXfnE-6kNYV-2" value="$$DTurb$$" style="whiteSpace=wrap;html=1;aspect=fixed;" parent="1" vertex="1">
          <mxGeometry x="320" y="280" width="80" height="80" as="geometry" />
        </mxCell>
        <mxCell id="2lbM-o8FKyXfnE-6kNYV-9" value="" style="edgeStyle=orthogonalEdgeStyle;rounded=0;orthogonalLoop=1;jettySize=auto;html=1;" parent="1" source="2lbM-o8FKyXfnE-6kNYV-3" target="pcb0Rrb9AqgbB0oOaPCg-23" edge="1">
          <mxGeometry relative="1" as="geometry" />
        </mxCell>
        <mxCell id="2lbM-o8FKyXfnE-6kNYV-3" value="&lt;table style=&quot;&quot;&gt;&lt;tbody&gt;&lt;tr&gt;&lt;td&gt;&lt;font style=&quot;font-size: 12px;&quot;&gt;$$1$$&lt;/font&gt;&lt;/td&gt;&lt;/tr&gt;&lt;tr&gt;&lt;td&gt;&lt;font style=&quot;font-size: 12px;&quot;&gt;$$-1$$&lt;/font&gt;&lt;/td&gt;&lt;/tr&gt;&lt;/tbody&gt;&lt;/table&gt;" style="whiteSpace=wrap;html=1;aspect=fixed;" parent="1" vertex="1">
          <mxGeometry x="720" y="200" width="80" height="80" as="geometry" />
        </mxCell>
        <mxCell id="2lbM-o8FKyXfnE-6kNYV-7" value="" style="endArrow=classic;html=1;rounded=0;entryX=0;entryY=0.75;entryDx=0;entryDy=0;exitX=1;exitY=0.5;exitDx=0;exitDy=0;" parent="1" source="2lbM-o8FKyXfnE-6kNYV-2" target="2lbM-o8FKyXfnE-6kNYV-3" edge="1">
          <mxGeometry width="50" height="50" relative="1" as="geometry">
            <mxPoint x="400" y="559" as="sourcePoint" />
            <mxPoint x="450" y="509" as="targetPoint" />
            <Array as="points">
              <mxPoint x="680" y="320" />
              <mxPoint x="680" y="260" />
            </Array>
          </mxGeometry>
        </mxCell>
        <mxCell id="2lbM-o8FKyXfnE-6kNYV-8" value="" style="endArrow=classic;html=1;rounded=0;entryX=0;entryY=0.25;entryDx=0;entryDy=0;exitX=1;exitY=0.5;exitDx=0;exitDy=0;" parent="1" target="2lbM-o8FKyXfnE-6kNYV-3" edge="1" source="GCO7xrDp6TmdYOZJOnFd-119">
          <mxGeometry width="50" height="50" relative="1" as="geometry">
            <mxPoint x="640" y="160" as="sourcePoint" />
            <mxPoint x="690" y="110" as="targetPoint" />
            <Array as="points">
              <mxPoint x="680" y="80" />
              <mxPoint x="680" y="220" />
            </Array>
          </mxGeometry>
        </mxCell>
        <mxCell id="0KDhCXIaI0-by84Zv6Ui-2" value="&lt;table style=&quot;&quot;&gt;&lt;tbody&gt;&lt;tr&gt;&lt;td&gt;&lt;font style=&quot;font-size: 12px;&quot;&gt;$$-Kt$$&lt;/font&gt;&lt;/td&gt;&lt;/tr&gt;&lt;tr&gt;&lt;td&gt;&lt;font style=&quot;font-size: 12px;&quot;&gt;$$Kt+1$$&lt;/font&gt;&lt;/td&gt;&lt;/tr&gt;&lt;/tbody&gt;&lt;/table&gt;" style="whiteSpace=wrap;html=1;aspect=fixed;" vertex="1" parent="1">
          <mxGeometry x="160" y="-40" width="80" height="80" as="geometry" />
        </mxCell>
        <mxCell id="0KDhCXIaI0-by84Zv6Ui-3" value="" style="endArrow=classic;html=1;rounded=0;exitX=1;exitY=0.5;exitDx=0;exitDy=0;entryX=0;entryY=0.25;entryDx=0;entryDy=0;" edge="1" parent="1" source="0KDhCXIaI0-by84Zv6Ui-2">
          <mxGeometry width="50" height="50" relative="1" as="geometry">
            <mxPoint x="250" y="220" as="sourcePoint" />
            <mxPoint x="320" y="60" as="targetPoint" />
            <Array as="points">
              <mxPoint x="280" />
              <mxPoint x="280" y="60" />
            </Array>
          </mxGeometry>
        </mxCell>
        <mxCell id="0KDhCXIaI0-by84Zv6Ui-5" value="$$\frac{1}{1+t3*s}$$" style="whiteSpace=wrap;html=1;aspect=fixed;" vertex="1" parent="1">
          <mxGeometry x="560" y="-120" width="80" height="80" as="geometry" />
        </mxCell>
        <mxCell id="0KDhCXIaI0-by84Zv6Ui-6" value="" style="endArrow=classic;html=1;rounded=0;exitX=1;exitY=0.5;exitDx=0;exitDy=0;entryX=1;entryY=0.5;entryDx=0;entryDy=0;" edge="1" parent="1" source="GCO7xrDp6TmdYOZJOnFd-119" target="0KDhCXIaI0-by84Zv6Ui-5">
          <mxGeometry width="50" height="50" relative="1" as="geometry">
            <mxPoint x="250" y="220" as="sourcePoint" />
            <mxPoint x="680" as="targetPoint" />
            <Array as="points">
              <mxPoint x="680" y="80" />
              <mxPoint x="680" y="-80" />
            </Array>
          </mxGeometry>
        </mxCell>
        <mxCell id="0KDhCXIaI0-by84Zv6Ui-7" value="" style="endArrow=classic;html=1;rounded=0;exitX=0;exitY=0.5;exitDx=0;exitDy=0;entryX=0;entryY=0.25;entryDx=0;entryDy=0;" edge="1" parent="1" source="0KDhCXIaI0-by84Zv6Ui-5" target="0KDhCXIaI0-by84Zv6Ui-2">
          <mxGeometry width="50" height="50" relative="1" as="geometry">
            <mxPoint x="250" y="220" as="sourcePoint" />
            <mxPoint x="120" y="40" as="targetPoint" />
            <Array as="points">
              <mxPoint x="120" y="-80" />
              <mxPoint x="120" y="-20" />
            </Array>
          </mxGeometry>
        </mxCell>
        <mxCell id="0KDhCXIaI0-by84Zv6Ui-8" value="$$At$$" style="whiteSpace=wrap;html=1;aspect=fixed;" vertex="1" parent="1">
          <mxGeometry width="80" height="80" as="geometry" />
        </mxCell>
        <mxCell id="0KDhCXIaI0-by84Zv6Ui-9" value="" style="endArrow=classic;html=1;rounded=0;exitX=1;exitY=0.5;exitDx=0;exitDy=0;entryX=0;entryY=0.75;entryDx=0;entryDy=0;" edge="1" parent="1" source="0KDhCXIaI0-by84Zv6Ui-8" target="0KDhCXIaI0-by84Zv6Ui-2">
          <mxGeometry width="50" height="50" relative="1" as="geometry">
            <mxPoint x="250" y="220" as="sourcePoint" />
            <mxPoint x="300" y="170" as="targetPoint" />
            <Array as="points">
              <mxPoint x="120" y="40" />
              <mxPoint x="120" y="20" />
            </Array>
          </mxGeometry>
        </mxCell>
        <mxCell id="0KDhCXIaI0-by84Zv6Ui-19" value="" style="edgeStyle=orthogonalEdgeStyle;rounded=0;orthogonalLoop=1;jettySize=auto;html=1;" edge="1" parent="1" source="0KDhCXIaI0-by84Zv6Ui-14" target="GCO7xrDp6TmdYOZJOnFd-99">
          <mxGeometry relative="1" as="geometry" />
        </mxCell>
        <mxCell id="0KDhCXIaI0-by84Zv6Ui-14" value="" style="whiteSpace=wrap;html=1;aspect=fixed;" vertex="1" parent="1">
          <mxGeometry x="320" y="40" width="80" height="80" as="geometry" />
        </mxCell>
        <mxCell id="0KDhCXIaI0-by84Zv6Ui-15" value="" style="endArrow=none;html=1;" edge="1" parent="1">
          <mxGeometry width="50" height="50" relative="1" as="geometry">
            <mxPoint x="348" y="95" as="sourcePoint" />
            <mxPoint x="372" y="65" as="targetPoint" />
          </mxGeometry>
        </mxCell>
        <mxCell id="0KDhCXIaI0-by84Zv6Ui-16" value="" style="endArrow=none;html=1;" edge="1" parent="1">
          <mxGeometry width="50" height="50" relative="1" as="geometry">
            <mxPoint x="372" y="65" as="sourcePoint" />
            <mxPoint x="392" y="65" as="targetPoint" />
          </mxGeometry>
        </mxCell>
        <mxCell id="0KDhCXIaI0-by84Zv6Ui-18" value="" style="endArrow=classic;html=1;rounded=0;exitX=1;exitY=0.5;exitDx=0;exitDy=0;entryX=0;entryY=0.5;entryDx=0;entryDy=0;" edge="1" parent="1" source="GCO7xrDp6TmdYOZJOnFd-120" target="0KDhCXIaI0-by84Zv6Ui-14">
          <mxGeometry width="50" height="50" relative="1" as="geometry">
            <mxPoint x="250" y="220" as="sourcePoint" />
            <mxPoint x="300" y="170" as="targetPoint" />
            <Array as="points">
              <mxPoint x="280" y="160" />
              <mxPoint x="280" y="80" />
            </Array>
          </mxGeometry>
        </mxCell>
      </root>
    </mxGraphModel>
  </diagram>
</mxfile>
